<mxfile host="app.diagrams.net" modified="2023-06-17T12:37:47.426Z" agent="Mozilla/5.0 (Windows NT 10.0; Win64; x64) AppleWebKit/537.36 (KHTML, like Gecko) Chrome/114.0.0.0 Safari/537.36" etag="IXNy4U2rbwV8F0TPeRcH" version="21.4.0" type="github">
  <diagram id="C5RBs43oDa-KdzZeNtuy" name="Page-1">
    <mxGraphModel dx="977" dy="601" grid="1" gridSize="10" guides="1" tooltips="1" connect="1" arrows="1" fold="1" page="1" pageScale="1" pageWidth="827" pageHeight="1169" math="0" shadow="0">
      <root>
        <mxCell id="WIyWlLk6GJQsqaUBKTNV-0" />
        <mxCell id="WIyWlLk6GJQsqaUBKTNV-1" parent="WIyWlLk6GJQsqaUBKTNV-0" />
        <mxCell id="Z5uLs2i97Zd2sHlQLUNh-3" style="edgeStyle=orthogonalEdgeStyle;rounded=0;orthogonalLoop=1;jettySize=auto;html=1;entryX=-0.036;entryY=0.495;entryDx=0;entryDy=0;entryPerimeter=0;" edge="1" parent="WIyWlLk6GJQsqaUBKTNV-1" source="WIyWlLk6GJQsqaUBKTNV-3" target="Z5uLs2i97Zd2sHlQLUNh-2">
          <mxGeometry relative="1" as="geometry" />
        </mxCell>
        <mxCell id="WIyWlLk6GJQsqaUBKTNV-3" value="输入待测量视频&lt;br&gt;与基准视频" style="rounded=1;whiteSpace=wrap;html=1;fontSize=12;glass=0;strokeWidth=1;shadow=0;" parent="WIyWlLk6GJQsqaUBKTNV-1" vertex="1">
          <mxGeometry y="160" width="110" height="40" as="geometry" />
        </mxCell>
        <mxCell id="Z5uLs2i97Zd2sHlQLUNh-8" style="edgeStyle=orthogonalEdgeStyle;rounded=0;orthogonalLoop=1;jettySize=auto;html=1;exitX=1;exitY=0.5;exitDx=0;exitDy=0;entryX=0;entryY=0.5;entryDx=0;entryDy=0;" edge="1" parent="WIyWlLk6GJQsqaUBKTNV-1" source="Z5uLs2i97Zd2sHlQLUNh-2" target="Z5uLs2i97Zd2sHlQLUNh-5">
          <mxGeometry relative="1" as="geometry" />
        </mxCell>
        <mxCell id="Z5uLs2i97Zd2sHlQLUNh-2" value="计算视频帧的差分图" style="rounded=1;whiteSpace=wrap;html=1;" vertex="1" parent="WIyWlLk6GJQsqaUBKTNV-1">
          <mxGeometry x="160" y="155" width="100" height="50" as="geometry" />
        </mxCell>
        <mxCell id="Z5uLs2i97Zd2sHlQLUNh-9" style="edgeStyle=orthogonalEdgeStyle;rounded=0;orthogonalLoop=1;jettySize=auto;html=1;exitX=1;exitY=0.5;exitDx=0;exitDy=0;entryX=0;entryY=0.5;entryDx=0;entryDy=0;" edge="1" parent="WIyWlLk6GJQsqaUBKTNV-1" source="Z5uLs2i97Zd2sHlQLUNh-5" target="Z5uLs2i97Zd2sHlQLUNh-7">
          <mxGeometry relative="1" as="geometry" />
        </mxCell>
        <mxCell id="Z5uLs2i97Zd2sHlQLUNh-5" value="计算视频帧的差分图" style="rounded=1;whiteSpace=wrap;html=1;" vertex="1" parent="WIyWlLk6GJQsqaUBKTNV-1">
          <mxGeometry x="320" y="155" width="100" height="50" as="geometry" />
        </mxCell>
        <mxCell id="Z5uLs2i97Zd2sHlQLUNh-11" style="edgeStyle=orthogonalEdgeStyle;rounded=0;orthogonalLoop=1;jettySize=auto;html=1;exitX=1;exitY=0.5;exitDx=0;exitDy=0;entryX=0;entryY=0.5;entryDx=0;entryDy=0;" edge="1" parent="WIyWlLk6GJQsqaUBKTNV-1" source="Z5uLs2i97Zd2sHlQLUNh-7" target="Z5uLs2i97Zd2sHlQLUNh-10">
          <mxGeometry relative="1" as="geometry" />
        </mxCell>
        <mxCell id="Z5uLs2i97Zd2sHlQLUNh-7" value="计算梯度序列的距离" style="rounded=1;whiteSpace=wrap;html=1;" vertex="1" parent="WIyWlLk6GJQsqaUBKTNV-1">
          <mxGeometry x="480" y="155" width="100" height="50" as="geometry" />
        </mxCell>
        <mxCell id="Z5uLs2i97Zd2sHlQLUNh-10" value="MTVS" style="rounded=1;whiteSpace=wrap;html=1;" vertex="1" parent="WIyWlLk6GJQsqaUBKTNV-1">
          <mxGeometry x="620" y="155" width="100" height="50" as="geometry" />
        </mxCell>
      </root>
    </mxGraphModel>
  </diagram>
</mxfile>
